# xmcd
#
# Track frame offsets:
#	150
#	18270
#	35733
#	52886
#	73383
#	89128
#	106221
#	116717
#	135527
#	150362
#	168735
#	185817
#	202155
#	219626
#
# Disc length: 3109 seconds
#
# Revision: 1
# Processed by: cddbd v1.5.1PL2 Copyright (c) Steve Scherf et al.
# Submitted via: audiograbber 1.83.01
#
DISCID=d50c230e
DTITLE=Star Disc - SD126
DYEAR=1900
DGENRE=Karaoke
TTITLE0=Urban, Keith - You,re My Better Half
TTITLE1=Clark, Terri - World Needs A Drink, The
TTITLE2=Rascal Flatts - Bless The Broken Road
TTITLE3=Evans, Sara - Tonight
TTITLE4=Vassar, Phil - I'll Take That As A Yes (The Hot Tub Song)
TTITLE5=Womack, Lee Ann - I May Hate Myself In The Morning
TTITLE6=Nichols, Joe - What's A Guy Got To Do
TTITLE7=Dalley, Amy - I Would Cry
TTITLE8=Morgan, Craig - That's What I Love About Sunday
TTITLE9=Larson, Blaine - How Do You Get That Lonely
TTITLE10=Willmon, Trent - Home Sweet Holiday Inn
TTITLE11=Carolina Rain - I Ain't Scared
TTITLE12=Byrd, Tracy - Revenge Of A Middle-Aged Woman
TTITLE13=Chesnutt, Mark - I'm A Saint
EXTD=
EXTT0=
EXTT1=
EXTT2=
EXTT3=
EXTT4=
EXTT5=
EXTT6=
EXTT7=
EXTT8=
EXTT9=
EXTT10=
EXTT11=
EXTT12=
EXTT13=
PLAYORDER=
